<?xml version="1.0" encoding="UTF-8" standalone="no"?>
<!-- Created with Inkscape (http://www.inkscape.org/) -->

<svg
   width="210mm"
   height="297mm"
   viewBox="0 0 210 297"
   version="1.1"
   id="svg1"
   inkscape:version="1.3 (1:1.3+202307231459+0e150ed6c4)"
   sodipodi:docname="accessdock.svg"
   xmlns:inkscape="http://www.inkscape.org/namespaces/inkscape"
   xmlns:sodipodi="http://sodipodi.sourceforge.net/DTD/sodipodi-0.dtd"
   xmlns="http://www.w3.org/2000/svg"
   xmlns:svg="http://www.w3.org/2000/svg">
  <sodipodi:namedview
     id="namedview1"
     pagecolor="#ffffff"
     bordercolor="#000000"
     borderopacity="0.25"
     inkscape:showpageshadow="2"
     inkscape:pageopacity="0.0"
     inkscape:pagecheckerboard="0"
     inkscape:deskcolor="#d1d1d1"
     inkscape:document-units="mm"
     inkscape:zoom="0.95321268"
     inkscape:cx="568.07889"
     inkscape:cy="608.99316"
     inkscape:window-width="1366"
     inkscape:window-height="739"
     inkscape:window-x="0"
     inkscape:window-y="0"
     inkscape:window-maximized="1"
     inkscape:current-layer="layer1" />
  <defs
     id="defs1">
    <clipPath
       clipPathUnits="userSpaceOnUse"
       id="clipPath2">
      <circle
         style="fill:none;fill-opacity:0.989465;stroke:#ffffff;stroke-width:4.074;stroke-dasharray:none;stroke-opacity:1"
         id="circle2"
         cx="109.76199"
         cy="126.43075"
         r="22" />
    </clipPath>
  </defs>
  <g
     inkscape:label="Capa 1"
     inkscape:groupmode="layer"
     id="layer1">
    <g
       id="g14"
       transform="matrix(-1.0465778,0,0,1.7500915,210.03484,-96.115283)">
      <rect
         style="opacity:1;fill:#ffffff;fill-opacity:1;stroke:#0000ff;stroke-width:1.078;stroke-dasharray:none;stroke-opacity:0.992157"
         id="rect13"
         width="44.474834"
         height="12.044557"
         x="79.791176"
         y="128.30101" />
      <rect
         style="opacity:1;fill:#0000ff;fill-opacity:1;stroke:#0000ff;stroke-width:0.400532;stroke-dasharray:none;stroke-opacity:0.992157"
         id="rect13-4"
         width="8.5994682"
         height="8.5994682"
         x="81.062271"
         y="130.01376" />
      <rect
         style="fill:#0000ff;fill-opacity:1;stroke:#0000ff;stroke-width:0.400532;stroke-dasharray:none;stroke-opacity:0.992157"
         id="rect13-4-7"
         width="8.5994682"
         height="8.5994682"
         x="91.910187"
         y="130.01376" />
      <rect
         style="fill:#0000ff;fill-opacity:1;stroke:#0000ff;stroke-width:0.447764;stroke-dasharray:none;stroke-opacity:0.992157"
         id="rect13-4-7-8"
         width="9.5522356"
         height="9.6752357"
         x="102.71739"
         y="129.47588" />
      <rect
         style="fill:#0000ff;fill-opacity:1;stroke:#0000ff;stroke-width:0.400532;stroke-dasharray:none;stroke-opacity:0.992157"
         id="rect13-4-7-8-4"
         width="8.5994682"
         height="8.5994682"
         x="114.13527"
         y="130.01376" />
    </g>
    <g
       id="g13"
       transform="matrix(0.21697465,0,0,0.30923407,69.326087,111.28094)">
      <path
         d="m 98.954167,133.61458 h 15.875003 v 5.29167 h 5.29166 v -47.625 h 5.29167 v -5.291667 h 10.58333 v 5.291667 h 5.29167 v 21.16667 h 10.58333 v 5.29166 h 15.875 v 5.29167 h 10.58334 v 5.29167 h 5.29166 v 5.29166 h 5.29167 v 37.04167 h -5.29167 v 15.875 h -5.29166 v 15.875 H 125.4125 v -15.875 h -5.29167 v -10.58333 h -5.29166 v -10.58334 h -5.29167 v -10.58333 h -5.29167 v -5.29167 h -5.291663 v -15.875"
         id="path1"
         style="stroke-width:0.264583" />
      <path
         fill="#ffffff"
         d="m 104.24583,138.90625 h 10.58334 v 5.29167 h 5.29166 v 15.875 h 5.29167 V 91.28125 h 10.58333 v 47.625 h 5.29167 v -21.16667 h 10.58333 v 21.16667 h 5.29167 v -15.875 h 10.58333 v 21.16667 h 5.29167 v -15.875 h 5.29167 v 5.29166 h 5.29166 v 37.04167 h -5.29166 v 15.875 h -5.29167 v 10.58333 h -42.33333 v -10.58333 h -5.29167 v -10.58333 h -5.29167 v -10.58334 h -5.29166 v -10.58333 h -5.29167 v -5.29167 h -5.29167 v -10.58333"
         id="path2"
         style="stroke-width:0.264583" />
    </g>
  </g>
</svg>
