<?xml version="1.0" encoding="UTF-8" standalone="no"?>
<svg
   version="1.1"
   viewBox="0 0 32 32"
   id="svg13"
   sodipodi:docname="mouseframe.svg"
   inkscape:version="1.2.2 (b0a8486541, 2022-12-01)"
   inkscape:export-filename="mouseframe.png"
   inkscape:export-xdpi="192"
   inkscape:export-ydpi="192"
   xmlns:inkscape="http://www.inkscape.org/namespaces/inkscape"
   xmlns:sodipodi="http://sodipodi.sourceforge.net/DTD/sodipodi-0.dtd"
   xmlns="http://www.w3.org/2000/svg"
   xmlns:svg="http://www.w3.org/2000/svg">
  <sodipodi:namedview
     id="namedview13"
     pagecolor="#ffffff"
     bordercolor="#000000"
     borderopacity="0.25"
     inkscape:showpageshadow="2"
     inkscape:pageopacity="0.0"
     inkscape:pagecheckerboard="0"
     inkscape:deskcolor="#d1d1d1"
     inkscape:zoom="16.71875"
     inkscape:cx="13.996262"
     inkscape:cy="15.22243"
     inkscape:window-width="1920"
     inkscape:window-height="1008"
     inkscape:window-x="0"
     inkscape:window-y="0"
     inkscape:window-maximized="1"
     inkscape:current-layer="svg13"
     showgrid="false" />
  <defs
     id="defs8">
    <linearGradient
       id="f"
       x2="0"
       y1="543.8"
       y2="502.66"
       gradientTransform="matrix(0.66667,0,0,0.63518,-256.38,-317.28)"
       gradientUnits="userSpaceOnUse">
      <stop
         stop-color="#c6cdd1"
         offset="0"
         id="stop1" />
      <stop
         stop-color="#e0e5e7"
         offset="1"
         id="stop2" />
    </linearGradient>
    <linearGradient
       id="e"
       x1="391.57"
       x2="406.57"
       y1="525.8"
       y2="540.8"
       gradientUnits="userSpaceOnUse"
       gradientTransform="translate(-384.57,-515.8)">
      <stop
         offset="0"
         id="stop3" />
      <stop
         stop-opacity="0"
         offset="1"
         id="stop4" />
    </linearGradient>
    <linearGradient
       id="g"
       x1="393.41"
       x2="407.41"
       y1="526.65"
       y2="526.65"
       gradientTransform="matrix(1,0,0,0.99999,-384.41629,-515.6433)"
       gradientUnits="userSpaceOnUse">
      <stop
         stop-color="#2e3436"
         offset="0"
         id="stop5" />
      <stop
         stop-color="#555753"
         offset="1"
         id="stop6" />
    </linearGradient>
    <linearGradient
       id="h"
       x1="392.57"
       x2="407.57"
       y1="521.8"
       y2="536.8"
       gradientTransform="translate(-384.57059,-511.7995)"
       gradientUnits="userSpaceOnUse">
      <stop
         offset="0"
         id="stop7" />
      <stop
         stop-opacity="0"
         offset="1"
         id="stop8" />
    </linearGradient>
    <linearGradient
       id="f-9"
       x2="0"
       y1="543.79999"
       y2="502.66"
       gradientTransform="matrix(0.67289932,0,0,0.64706979,-258.81963,-323.40052)"
       gradientUnits="userSpaceOnUse">
      <stop
         stop-color="#c6cdd1"
         offset="0"
         id="stop1-3" />
      <stop
         stop-color="#e0e5e7"
         offset="1"
         id="stop2-6" />
    </linearGradient>
    <linearGradient
       id="e-0"
       x1="391.57001"
       x2="406.57001"
       y1="525.79999"
       y2="540.79999"
       gradientUnits="userSpaceOnUse"
       gradientTransform="matrix(1.009344,0,0,1.0187188,-388.20738,-525.63658)">
      <stop
         offset="0"
         id="stop3-6" />
      <stop
         stop-opacity="0"
         offset="1"
         id="stop4-2" />
    </linearGradient>
    <linearGradient
       id="f-3"
       x2="0"
       y1="543.79999"
       y2="502.66"
       gradientTransform="matrix(0.4028414,0,0,0.38737815,-153.51607,-186.92237)"
       gradientUnits="userSpaceOnUse">
      <stop
         stop-color="#c6cdd1"
         offset="0"
         id="stop1-6" />
      <stop
         stop-color="#e0e5e7"
         offset="1"
         id="stop2-7" />
    </linearGradient>
    <linearGradient
       id="e-5"
       x1="391.57001"
       x2="406.57001"
       y1="525.79999"
       y2="540.79999"
       gradientUnits="userSpaceOnUse"
       gradientTransform="matrix(0.60425904,0,0,0.60987146,-230.97605,-307.99406)">
      <stop
         offset="0"
         id="stop3-3" />
      <stop
         stop-opacity="0"
         offset="1"
         id="stop4-5" />
    </linearGradient>
  </defs>
  <rect
     x="-0.044"
     y="1.8559999"
     width="32.299"
     height="28.524126"
     rx="0"
     fill="url(#f)"
     id="rect8"
     style="fill:url(#f-9);stroke-width:1.01402" />
  <path
     d="M 0.96533476,28.342702 31.245649,7.9683219 l 1.009344,1.01872 -7e-6,21.3931001 -29.270974,3e-5 z"
     fill="url(#e)"
     fill-rule="evenodd"
     opacity="0.2"
     id="path8"
     style="fill:url(#e-0);stroke-width:1.01402" />
  <rect
     x="-0.044"
     y="1.8559999"
     width="32.299"
     height="4.0748749"
     fill="#566069"
     id="rect9"
     style="stroke-width:1.01402" />
  <rect
     x="-0.044"
     y="5.9308753"
     width="32.299"
     height="1.0187187"
     fill="#3daee9"
     id="rect10"
     style="stroke-width:1.01402" />
  <rect
     x="1.4038707"
     y="7.7973819"
     width="19.33629"
     height="17.076401"
     rx="0"
     fill="url(#f)"
     id="rect8-6"
     style="fill:url(#f-3);stroke-width:0.607058" />
  <path
     d="m 2.008122,23.654042 18.127775,-12.19742 0.604255,0.60987 -10e-6,12.8073 -17.5235077,2e-5 z"
     fill="url(#e)"
     fill-rule="evenodd"
     opacity="0.2"
     id="path8-2"
     style="fill:url(#e-5);stroke-width:0.607058" />
  <rect
     x="1.4038707"
     y="7.7973819"
     width="19.33629"
     height="2.4394858"
     fill="#566069"
     id="rect9-9"
     style="stroke-width:0.607058" />
  <rect
     x="1.4038707"
     y="10.236873"
     width="19.33629"
     height="0.60987145"
     fill="#3daee9"
     id="rect10-1"
     style="stroke-width:0.607058" />
  <rect
     x="2.0081301"
     y="11.456607"
     width="18.127771"
     height="12.19743"
     fill="#ffffff"
     id="rect11-2"
     style="stroke-width:0.607058" />
  <rect
     x="18.927389"
     y="8.4072523"
     width="1.2085181"
     height="1.2197429"
     rx="0.60425907"
     fill="#eff0f1"
     id="rect12-7"
     style="stroke-width:0.607058" />
  <path
     style="fill:#b19dfa;fill-opacity:0.387718;stroke-width:0.607058"
     d="m 3.0589293,12.176212 12.9999957,-0.031"
     id="path14-6-0" />
  <rect
     x="29.226969"
     y="2.8747227"
     width="2.0186877"
     height="2.0374377"
     rx="1.0093437"
     fill="#eff0f1"
     id="rect12"
     style="stroke-width:1.01402" />
  <path
     style="fill:#b19dfa;fill-opacity:0.387718;stroke-width:1.01402"
     d="M 2.7205836,9.1703319 24.43555,9.1184319"
     id="path14-6" />
  <ellipse
     style="opacity:0.870307;fill:#4d4d4d;stroke:#ffffff;stroke-width:0.139549;stroke-opacity:0.848485"
     id="path4296"
     cx="22.710411"
     cy="18.297815"
     rx="6.9095044"
     ry="6.9736032" />
  <path
     style="fill:#000000;fill-opacity:1;stroke:#000000;stroke-width:0.180112;stroke-dasharray:none;stroke-opacity:0.848485"
     d="m 20.502778,14.156372 c 0,-0.028 -0.03407,-0.0509 -0.07573,-0.0509 -0.0416,0 -0.07572,-0.0344 -0.07572,-0.0764 0,-0.042 -0.03405,-0.0764 -0.07573,-0.0764 -0.0416,0 -0.07573,-0.0344 -0.07573,-0.0764 0,-0.042 -0.03406,-0.0764 -0.07572,-0.0764 -0.0416,0 -0.07569,-0.0344 -0.07569,-0.0764 0,-0.042 -0.034,-0.0764 -0.07574,-0.0764 -0.0416,0 -0.07572,-0.0343 -0.07572,-0.0764 0,-0.042 -0.03406,-0.0764 -0.07572,-0.0764 -0.0416,0 -0.07574,-0.0344 -0.07574,-0.0764 0,-0.0605 -0.07207,-0.0764 -0.34567,-0.0764 -0.190125,0 -0.48559,-0.0147 -0.656582,-0.0328 -0.271538,-0.0286 -0.314678,-0.048 -0.340725,-0.15272 -0.01635,-0.066 -0.05004,-0.11993 -0.07482,-0.11993 -0.02565,0 -0.04497,-1.04654 -0.04497,-2.44358 0,-1.4545001 0.01881,-2.4435801 0.04651,-2.4435801 0.02555,0 0.06143,-0.0687 0.07962,-0.15273 0.03417,-0.157 0.126099,-0.21267 0.126099,-0.0764 0,0.0509 0.05039,0.0764 0.151326,0.0764 0.100881,0 0.151313,0.0255 0.151313,0.0764 0,0.042 0.03405,0.0764 0.07573,0.0764 0.0416,0 0.07573,0.0344 0.07573,0.0764 0,0.042 0.02269,0.0764 0.05039,0.0764 0.02771,0 0.05039,0.0344 0.05039,0.0764 0,0.042 0.03404,0.0764 0.0757,0.0764 0.0416,0 0.07574,0.0344 0.07574,0.0764 0,0.042 0.0322,0.0764 0.07165,0.0764 0.03946,0 0.08658,0.0687 0.104886,0.15272 0.01829,0.084 0.06552,0.15273 0.104884,0.15273 0.03946,0 0.07165,0.0343 0.07165,0.0764 0,0.042 0.03406,0.0764 0.0757,0.0764 0.0416,0 0.07573,0.0344 0.07573,0.0764 0,0.042 0.03398,0.0764 0.07574,0.0764 0.0416,0 0.07574,0.0344 0.07574,0.0764 0,0.042 0.03404,0.0764 0.07569,0.0764 0.0416,0 0.07571,0.0344 0.07571,0.0764 0,0.042 0.03598,0.0764 0.07983,0.0764 0.04385,0 0.07083,0.0272 0.05992,0.0605 -0.03107,0.0944 -0.139762,0.1100503 -0.139762,0.0202 0,-0.0443 -0.03399,-0.0806 -0.07573,-0.0806 -0.0416,0 -0.07574,-0.0344 -0.07574,-0.0764 0,-0.042 -0.03406,-0.0764 -0.07574,-0.0764 -0.0416,0 -0.07571,-0.0343 -0.07571,-0.0764 0,-0.042 -0.03405,-0.0764 -0.07572,-0.0764 -0.0416,0 -0.07573,-0.0343 -0.07573,-0.0764 0,-0.042 -0.03408,-0.0764 -0.07573,-0.0764 -0.0416,0 -0.07574,-0.0344 -0.07574,-0.0764 0,-0.042 -0.03397,-0.0764 -0.07574,-0.0764 -0.0416,0 -0.07574,-0.0344 -0.07574,-0.0764 0,-0.042 -0.03397,-0.0764 -0.07572,-0.0764 -0.0416,0 -0.07572,-0.0343 -0.07572,-0.0763 0,-0.042 -0.03405,-0.0764 -0.07575,-0.0764 -0.0416,0 -0.0757,-0.0343 -0.0757,-0.0764 0,-0.042 -0.03406,-0.0764 -0.07574,-0.0764 -0.0416,0 -0.07571,-0.0229 -0.07571,-0.0509 0,-0.066 -0.186775,-0.25454 -0.252197,-0.25454 -0.03292,0 -0.05039,0.84847 -0.05039,2.4435801 v 2.44358 h 0.605278 c 0.504395,0 0.605268,0.0127 0.605268,0.0764 0,0.042 0.03398,0.0764 0.07574,0.0764 0.0416,0 0.07573,0.0344 0.07573,0.0764 0,0.042 0.03406,0.0764 0.0757,0.0764 0.0416,0 0.07571,0.0344 0.07571,0.0764 0,0.042 0.03408,0.0764 0.07571,0.0764 0.0416,0 0.0757,0.0344 0.0757,0.0764 0,0.042 0.03397,0.0764 0.07574,0.0764 0.0416,0 0.07573,0.0344 0.07573,0.0764 0,0.042 0.03397,0.0764 0.07573,0.0764 0.0416,0 0.07575,0.0343 0.07575,0.0764 0,0.10356 0.271091,0.10093 0.3747,-0.004 0.06284,-0.0634 0.07925,-0.20064 0.07925,-0.66031 v -0.5803 l 0.453955,-0.45297 c 0.436286,-0.43534 0.568787,-0.67001 0.378293,-0.67001 -0.0416,0 -0.0757,-0.0351 -0.0757,-0.078 0,-0.0429 -0.03405,-0.0911 -0.07572,-0.10726 -0.0416,-0.0161 -0.07571,-0.0612 -0.07571,-0.10022 0,-0.039 -0.03408,-0.0709 -0.07573,-0.0709 -0.0416,0 -0.07572,-0.0344 -0.07572,-0.0764 0,-0.042 -0.03406,-0.0764 -0.07573,-0.0764 -0.0416,0 -0.07574,-0.0343 -0.07574,-0.0764 0,-0.042 -0.03399,-0.0764 -0.07571,-0.0764 -0.0416,0 -0.07574,-0.0344 -0.07574,-0.0764 0,-0.042 -0.03404,-0.0764 -0.07574,-0.0764 -0.0416,0 -0.07572,-0.0344 -0.07572,-0.0764 0,-0.042 -0.03406,-0.0764 -0.07572,-0.0764 -0.0416,0 -0.07573,-0.0326 -0.07573,-0.0725 0,-0.0398 -0.06808,-0.14117 -0.151313,-0.22516 -0.152425,-0.15384 -0.194148,-0.2623799 -0.100893,-0.2623799 0.0277,0 0.05039,0.0344 0.05039,0.0764 0,0.042 0.03401,0.0764 0.07575,0.0764 0.0416,0 0.07571,0.0343 0.07571,0.0764 0,0.042 0.03408,0.0764 0.07573,0.0764 0.0416,0 0.07573,0.0344 0.07573,0.0764 0,0.042 0.03406,0.0764 0.07571,0.0764 0.0416,0 0.07575,0.0344 0.07575,0.0764 0,0.042 0.03406,0.0764 0.07573,0.0764 0.0416,0 0.07574,0.0344 0.07574,0.0764 0,0.042 0.03398,0.0764 0.07574,0.0764 0.0416,0 0.0757,0.0344 0.0757,0.0764 0,0.042 0.03399,0.0764 0.07573,0.0764 0.0416,0 0.07574,0.0344 0.07574,0.0764 0,0.042 0.03404,0.0764 0.07574,0.0764 0.0416,0 0.07572,0.0344 0.07572,0.0764 0,0.042 0.03406,0.0764 0.07572,0.0764 0.0416,0 0.07573,0.0344 0.07573,0.0764 0,0.042 0.03406,0.0764 0.07572,0.0764 0.0416,0 0.07572,0.0343 0.07572,0.0764 0,0.042 0.03398,0.0764 0.07573,0.0764 0.05039,0 0.07571,0.0509 0.07571,0.15273 0,0.10181 -0.02525,0.15272 -0.07571,0.15272 -0.0416,0 -0.07573,0.0344 -0.07573,0.0764 0,0.042 -0.03406,0.0764 -0.07572,0.0764 -0.0416,0 -0.07572,0.0344 -0.07572,0.0764 0,0.042 -0.03406,0.0764 -0.07573,0.0764 -0.0416,0 -0.07572,0.0343 -0.07572,0.0764 0,0.042 -0.03401,0.0764 -0.07572,0.0764 -0.0416,0 -0.07574,0.0247 -0.07574,0.0548 0,0.0302 -0.06808,0.12355 -0.151316,0.20755 -0.150543,0.15194 -0.151314,0.15572 -0.151314,0.73668 0,0.56609 -0.0041,0.58778 -0.133469,0.7088 -0.07339,0.0687 -0.164198,0.12484 -0.201758,0.12484 -0.03751,0 -0.06828,0.0229 -0.06828,0.0509 0,0.028 -0.06808,0.0509 -0.151316,0.0509 -0.0832,0 -0.151323,-0.0229 -0.151323,-0.0509 z M 20.351464,9.9055521 c 0,-0.042 0.02269,-0.0764 0.05039,-0.0764 0.0277,0 0.05039,0.0344 0.05039,0.0764 0,0.042 -0.02269,0.0764 -0.05039,0.0764 -0.0277,0 -0.05039,-0.0343 -0.05039,-0.0764 z M 20.200149,9.7528322 c 0,-0.042 0.02269,-0.0764 0.05039,-0.0764 0.02771,0 0.05039,0.0344 0.05039,0.0764 0,0.042 -0.02269,0.0764 -0.05039,0.0764 -0.0277,0 -0.05039,-0.0344 -0.05039,-0.0764 z"
     id="path4345" />
  <path
     style="opacity:0.870307;fill:#ffffff;fill-opacity:1;stroke:none;stroke-width:0.0255888;stroke-dasharray:none;stroke-opacity:0.848485"
     d="m 18.63023,12.057302 v -0.5988 h 0.750759 0.750757 v 0.18071 0.18072 l -0.224893,0.0967 c -0.302715,0.13014 -0.679449,0.33915 -1.006529,0.55842 l -0.270094,0.18107 z"
     id="path5900" />
  <path
     style="opacity:0.870307;fill:#ffffff;fill-opacity:1;stroke:none;stroke-width:0.0255888;stroke-dasharray:none;stroke-opacity:0.848485"
     d="m 20.232449,11.551422 -0.10987,-0.11005 -0.746167,-6.5e-4 -0.746182,-6.5e-4 v -0.2957 -0.29569 h 1.053298 1.053288 l -0.0051,0.34321 -0.0051,0.34321 -0.192264,0.0632 c -0.105746,0.0347 -0.192262,0.0632 -0.192262,0.0632 0,2e-5 -0.04948,-0.0495 -0.109871,-0.11 z"
     id="path5902" />
  <path
     style="fill:#ffffff;fill-opacity:1;stroke:#ffffff;stroke-width:0.00639718;stroke-dasharray:none;stroke-opacity:0.848485"
     d="m 18.625653,12.064032 v -0.60553 h 0.753049 0.753044 l 9.89e-4,0.14785 c 5.14e-4,0.0813 9.91e-4,0.16372 9.91e-4,0.18313 l 1.32e-4,0.0353 -0.07094,0.0297 c -0.368448,0.15437 -0.718454,0.3379 -1.05518,0.55327 -0.09185,0.0588 -0.252603,0.16803 -0.321761,0.21873 -0.02699,0.0198 -0.05162,0.0375 -0.05479,0.0395 -0.0051,0.003 -0.0062,-0.11873 -0.0062,-0.60197 z"
     id="path5914" />
  <path
     style="fill:#ffffff;fill-opacity:1;stroke:#ffffff;stroke-width:0.00639718;stroke-dasharray:none;stroke-opacity:0.848485"
     d="m 20.232449,11.548592 -0.107501,-0.10857 H 19.377589 18.63023 v -0.2957 -0.2957 h 1.052613 1.052604 l -0.0031,0.13976 c -9.9e-4,0.0769 -0.0041,0.23109 -0.0051,0.3427 l -0.0031,0.20293 -0.187687,0.0615 c -0.103234,0.0338 -0.18977,0.0616 -0.192305,0.0616 -0.0031,2e-5 -0.05305,-0.0488 -0.11212,-0.10854 z"
     id="path6054" />
  <path
     style="fill:#ffffff;fill-opacity:1;stroke:#ffffff;stroke-width:0.00639718;stroke-dasharray:none;stroke-opacity:0.848485"
     d="m 20.232449,11.548592 -0.107501,-0.10857 H 19.377589 18.63023 v -0.2957 -0.2957 h 1.053556 1.053555 l -0.0031,0.13745 c -0.0021,0.0756 -0.0041,0.23023 -0.0062,0.34363 l -0.0031,0.20617 -0.04395,0.0138 c -0.02419,0.008 -0.108432,0.0349 -0.18724,0.0606 -0.07881,0.0258 -0.145767,0.0469 -0.148808,0.0469 -0.0031,0 -0.05386,-0.0489 -0.113039,-0.10858 z"
     id="path6056" />
  <path
     style="fill:#ffffff;fill-opacity:1;stroke:#ffffff;stroke-width:0.00639718;stroke-dasharray:none;stroke-opacity:0.848485"
     d="m 20.229429,11.548532 -0.110603,-0.10851 H 19.374529 18.63023 v -0.2957 -0.2957 h 1.053594 1.053594 l -0.0031,0.21138 c -0.002,0.11625 -0.0041,0.27116 -0.0062,0.34423 l -0.0031,0.13285 -0.03475,0.0111 c -0.01911,0.006 -0.102516,0.0331 -0.185298,0.06 -0.08279,0.0269 -0.153852,0.0489 -0.157933,0.0489 -0.0041,-3e-5 -0.05713,-0.0489 -0.118025,-0.10858 z"
     id="path6058" />
  <path
     style="fill:#ffffff;fill-opacity:1;stroke:#ffffff;stroke-width:0.00639718;stroke-dasharray:none;stroke-opacity:0.848485"
     d="m 20.138789,11.697912 c -0.0021,-0.0262 -0.0021,-0.0889 -0.0021,-0.13938 l 9.91e-4,-0.0917 0.102557,0.10098 0.102558,0.10098 -0.09342,0.0355 c -0.05141,0.0195 -0.0968,0.0368 -0.100954,0.0384 -0.0072,0.003 -0.0082,-0.003 -0.01063,-0.0447 z"
     id="path6060" />
  <path
     style="fill:#ffffff;fill-opacity:1;stroke:#ffffff;stroke-width:0.00639718;stroke-dasharray:none;stroke-opacity:0.848485"
     d="m 20.740581,11.049822 v -0.48722 l 0.02167,0.0219 c 0.02372,0.0238 0.05765,0.0422 0.08474,0.0459 0.01411,0.002 0.01774,0.005 0.01983,0.0144 0.01016,0.0448 0.03107,0.0833 0.05806,0.10405 0.02092,0.0161 0.06284,0.035 0.07758,0.0351 0.01016,3e-5 0.01308,0.003 0.01512,0.0127 0.01677,0.0788 0.05806,0.12011 0.142933,0.14263 0.0031,9.1e-4 0.0072,0.004 0.0072,0.007 0.02108,0.0847 0.06205,0.12647 0.141386,0.14417 0.01016,0.002 0.01257,0.005 0.01257,0.0154 4.8e-5,0.0149 0.01881,0.0572 0.03475,0.0783 0.02065,0.0273 0.05857,0.0488 0.103705,0.0588 0.0072,0.002 0.01257,0.006 0.01257,0.009 0,0.0132 0.01922,0.0581 0.03434,0.0804 l 0.01543,0.0227 -0.02146,0.003 c -0.03997,0.006 -0.254427,0.0492 -0.335058,0.0678 -0.109206,0.0251 -0.222702,0.0541 -0.331184,0.0846 -0.04994,0.0141 -0.09169,0.0256 -0.09271,0.0256 -9.89e-4,0 -0.0021,-0.21925 -0.0021,-0.48722 z"
     id="path6062" />
  <path
     style="fill:#ffffff;fill-opacity:1;stroke:#ffffff;stroke-width:0.00639718;stroke-dasharray:none;stroke-opacity:0.848485"
     d="m 18.625653,10.583662 c 0,-0.14318 9.91e-4,-0.27937 0.0031,-0.30263 l 0.0031,-0.0423 h 0.944993 0.944991 l 0.04579,0.0484 c 0.09363,0.099 0.142328,0.16626 0.147846,0.20429 0.0021,0.0122 0.0072,0.0313 0.01196,0.0424 0.0082,0.0185 0.0092,0.0324 0.0092,0.16518 v 0.14495 H 19.68128 18.626101 Z"
     id="path6064" />
  <path
     style="fill:#ffffff;fill-opacity:1;stroke:#ffffff;stroke-width:0.00639718;stroke-dasharray:none;stroke-opacity:0.848485"
     d="m 18.631717,9.6277122 c 0.0021,-0.3335303 0.0051,-0.6979003 0.0082,-0.8097103 0.0062,-0.24746 0.01319,-0.47499 0.01656,-0.49618 l 0.0031,-0.0157 0.023,0.0226 c 0.03036,0.0297 0.06787,0.0836 0.06787,0.0973 0,0.0175 0.01775,0.0507 0.03823,0.0715 0.02146,0.0218 0.05366,0.0384 0.08832,0.0457 0.0228,0.005 0.02362,0.005 0.02648,0.0236 0.0072,0.0449 0.04679,0.0959 0.09005,0.11598 0.01237,0.006 0.02198,0.0115 0.02136,0.0128 -0.04678,0.0915 -0.05683,0.11674 -0.07186,0.18033 -0.04906,0.20861 0.01429,0.42887 0.166999,0.58029 0.07962,0.079 0.181442,0.1340404 0.295096,0.1595503 0.04109,0.009 0.06001,0.0107 0.130459,0.0104 0.0876,-3.9e-4 0.115133,-0.004 0.189203,-0.028 0.021,-0.007 0.0554,-0.0209 0.07656,-0.0316 l 0.03843,-0.0195 0.0072,0.0112 c 0.01112,0.0172 0.05939,0.0464 0.08668,0.0526 0.02401,0.005 0.02445,0.006 0.02728,0.0245 0.01016,0.0637 0.0647,0.11643 0.125246,0.11947 l 0.0229,10e-4 0.0031,0.0257 c 0.0041,0.0325 0.02392,0.0754 0.04631,0.0985 0.02167,0.0224 0.05796,0.0398 0.083,0.0398 0.01881,4e-5 0.01911,2.6e-4 0.02228,0.0197 0.0051,0.0293 0.02617,0.0728 0.04528,0.0924 0.02372,0.0242 0.0503,0.0369 0.08453,0.04 l 0.02913,0.003 0.0082,0.0214 c 0.01063,0.0274 0.0323,0.0636 0.05919,0.0987 0.01165,0.0152 0.02269,0.0303 0.02463,0.0335 0.0031,0.005 -0.186545,0.006 -0.940564,0.006 h -0.94411 z"
     id="path6066" />
  <path
     style="fill:#ffffff;fill-opacity:1;stroke:#ffffff;stroke-width:0.00639718;stroke-dasharray:none;stroke-opacity:0.848485"
     d="m 19.466284,9.6210022 c -5.14e-4,-5.2e-4 -0.01216,-0.002 -0.02596,-0.003 -0.0138,-10e-4 -0.02811,-0.003 -0.03189,-0.005 -0.01758,-0.006 -0.04303,-0.0117 -0.04651,-0.01 -0.0021,10e-4 -0.0041,-2e-5 -0.0041,-0.003 0,-0.003 -0.0031,-0.004 -0.0072,-0.003 -0.0041,10e-4 -0.0072,3.9e-4 -0.0072,-0.002 0,-0.003 -0.0031,-0.004 -0.0062,-0.003 -0.0041,0.001 -0.0092,1.1e-4 -0.01139,-0.003 -0.0031,-0.003 -0.0051,-0.003 -0.0051,-7.8e-4 -3.9e-5,0.002 -0.0021,0.002 -0.0031,-9.1e-4 -0.0021,-0.003 -0.0082,-0.006 -0.01247,-0.007 -0.0051,-9.1e-4 -0.01022,-0.003 -0.01138,-0.004 -0.0041,-0.004 -0.06869,-0.0371 -0.06869,-0.035 0,10e-4 -0.0051,-0.002 -0.01032,-0.007 -0.0062,-0.005 -0.02678,-0.0211 -0.04694,-0.0361 -0.02014,-0.0151 -0.04958,-0.041 -0.06522,-0.0575 -0.01574,-0.0166 -0.02862,-0.0287 -0.02862,-0.0271 -10e-6,0.002 -0.0041,-0.003 -0.0092,-0.0108 -0.0051,-0.008 -0.01298,-0.0185 -0.01829,-0.0241 -0.0051,-0.006 -0.01016,-0.0124 -0.01016,-0.015 0,-0.003 -0.0021,-0.005 -0.0051,-0.005 -0.0031,0 -0.0041,-0.002 -0.0021,-0.005 0.0021,-0.003 -3.87e-4,-0.006 -0.0041,-0.007 -0.0041,-0.002 -0.0062,-0.005 -0.0051,-0.007 9.9e-4,-0.002 -6.44e-4,-0.005 -0.0051,-0.007 -0.0041,-0.002 -0.0062,-0.005 -0.0051,-0.007 9.9e-4,-0.002 2.58e-4,-0.004 -0.0031,-0.004 -0.0031,0 -0.0041,-0.002 -0.0021,-0.005 0.0021,-0.003 6.44e-4,-0.005 -0.0021,-0.005 -0.0031,0 -0.0041,-0.002 -0.0041,-0.003 0.0021,-0.006 -0.0062,-0.0242 -0.01043,-0.0242 -0.0021,0 -0.0041,-0.002 -0.0031,-0.003 0.0021,-0.006 -0.0062,-0.0243 -0.01043,-0.0243 -0.002,0 -0.0041,-0.005 -0.0041,-0.0115 0,-0.006 -0.0021,-0.0115 -0.0051,-0.0115 -0.0031,0 -0.0041,-0.003 -0.0031,-0.006 9.9e-4,-0.004 9.9e-4,-0.008 -6.44e-4,-0.01 -0.0021,-0.002 -0.0031,-0.005 -0.0031,-0.006 -7.72e-4,-0.0123 -0.0138,-0.0516 -0.01697,-0.0516 -0.0021,0 -0.0031,-0.002 -9.91e-4,-0.004 9.91e-4,-0.002 6.44e-4,-0.0133 -0.0021,-0.0243 -0.0082,-0.038 -0.01022,-0.0609 -0.01022,-0.12116 10e-6,-0.0333 2.56e-4,-0.0615 6.44e-4,-0.0628 3.86e-4,-0.001 9.9e-4,-0.006 0.0021,-0.0115 9.01e-4,-0.005 0.0041,-0.0228 0.0082,-0.0393 0.0031,-0.0165 0.0062,-0.0337 0.0051,-0.0381 -2.58e-4,-0.004 0.002,-0.008 0.0041,-0.008 0.0031,0 0.0031,-0.004 0.0021,-0.009 -9.89e-4,-0.005 -7.67e-4,-0.009 9.91e-4,-0.009 0.0041,0 0.01697,-0.0423 0.01449,-0.0457 -7.7e-4,-10e-4 5.18e-4,-0.003 0.0031,-0.005 0.0021,-0.002 0.01288,-0.0205 0.02372,-0.0421 0.01084,-0.0216 0.02126,-0.041 0.02341,-0.0432 0.0021,-0.002 0.01016,-0.003 0.01738,-9.2e-4 0.01165,0.003 0.01411,0.006 0.01666,0.0217 0.01016,0.0604 0.0691,0.11929 0.132042,0.13067 0.0137,0.002 0.01717,0.005 0.01728,0.0133 1.27e-4,0.0153 0.01932,0.0594 0.03455,0.0795 0.01829,0.0243 0.06133,0.0515 0.09159,0.0578 0.02084,0.004 0.02484,0.007 0.02494,0.0153 1.31e-4,0.0151 0.01932,0.0593 0.03455,0.0794 0.0179,0.0238 0.06102,0.0513 0.09108,0.0581 0.0231,0.005 0.02453,0.006 0.02719,0.0222 0.01022,0.062 0.06879,0.12081 0.131684,0.13232 0.01482,0.003 0.01707,0.005 0.01983,0.0199 0.01146,0.0639 0.06797,0.12094 0.131289,0.13252 0.01482,0.003 0.01707,0.005 0.01973,0.0199 0.0021,0.009 0.0082,0.0275 0.0137,0.0405 l 0.01063,0.0236 -0.03148,0.0154 c -0.01738,0.008 -0.03148,0.017 -0.03148,0.019 0,0.002 -0.0031,0.002 -0.0062,0.001 -0.0031,-0.001 -0.0092,2.6e-4 -0.01257,0.004 -0.0041,0.003 -0.0082,0.006 -0.01094,0.006 -0.01033,2.6e-4 -0.03424,0.008 -0.03434,0.0106 0,0.002 -0.0072,0.004 -0.01482,0.004 -0.0082,5.2e-4 -0.01543,0.003 -0.01615,0.005 -7.78e-4,0.002 -0.0062,0.003 -0.01257,0.002 -0.0062,-10e-4 -0.0113,-3.9e-4 -0.0113,0.002 0,0.002 -0.0072,0.004 -0.01483,0.005 -0.02882,10e-4 -0.169001,0.004 -0.169911,0.003 z"
     id="path6068" />
  <path
     style="fill:#ffffff;fill-opacity:1;stroke:#ffffff;stroke-width:0.00639718;stroke-dasharray:none;stroke-opacity:0.848485"
     d="m 20.123432,13.345932 c -0.0186,-0.0425 -0.06194,-0.0788 -0.108423,-0.091 -0.02473,-0.006 -0.02964,-0.0104 -0.02975,-0.0246 -1.32e-4,-0.0162 -0.02576,-0.0641 -0.04405,-0.0825 -0.02341,-0.0234 -0.04896,-0.0382 -0.07952,-0.0461 -0.02341,-0.006 -0.02514,-0.008 -0.02841,-0.0234 -0.0051,-0.0236 -0.0136,-0.0392 -0.0337,-0.0601 -0.0323,-0.0335 -0.08637,-0.0521 -0.182942,-0.0628 -0.05765,-0.006 -0.440101,-0.0134 -0.7517,-0.0137 l -0.239187,-2.6e-4 v -0.0894 -0.0894 l 0.09955,-0.0716 c 0.432779,-0.31097 0.8428,-0.54329 1.320999,-0.7485 0.04732,-0.0203 0.08709,-0.0361 0.08821,-0.035 9.91e-4,10e-4 9.91e-4,0.33059 7.71e-4,0.7322 l -9.91e-4,0.7302 z"
     id="path6070" />
  <path
     style="fill:#ffffff;fill-opacity:1;stroke:#ffffff;stroke-width:0.00639718;stroke-dasharray:none;stroke-opacity:0.848485"
     d="m 20.613896,13.857732 c -0.01772,-0.002 -0.02126,-0.007 -0.02903,-0.0355 -0.0062,-0.0211 -0.02872,-0.0573 -0.04538,-0.0712 -0.02208,-0.0185 -0.05011,-0.0335 -0.07155,-0.0383 -0.02351,-0.005 -0.02433,-0.006 -0.02934,-0.026 -0.01584,-0.0637 -0.06368,-0.11333 -0.121731,-0.12644 -0.02361,-0.005 -0.02437,-0.006 -0.02944,-0.0262 -0.01574,-0.063 -0.06429,-0.11332 -0.121838,-0.12633 -0.01339,-0.003 -0.02494,-0.008 -0.02576,-0.0106 -7.74e-4,-0.003 -7.74e-4,-0.34019 -1.3e-4,-0.74976 l 9.91e-4,-0.74468 0.06972,-0.0278 c 0.413699,-0.16501 0.867919,-0.29388 1.320514,-0.37464 0.100221,-0.0179 0.09877,-0.0179 0.105731,0.002 0.01421,0.0394 0.0602,0.0795 0.106379,0.0926 0.03168,0.009 0.03148,0.006 0.0041,0.0519 -0.0784,0.13034 -0.177125,0.24003 -0.578189,0.64218 l -0.304413,0.30526 -0.0021,0.48924 c -0.0021,0.50508 -0.0041,0.5549 -0.02197,0.64584 -0.01016,0.051 -0.01564,0.0641 -0.03455,0.0823 -0.03414,0.0328 -0.12596,0.055 -0.192335,0.0466 z"
     id="path6072" />
  <path
     style="fill:#ffffff;fill-opacity:1;stroke:#ffffff;stroke-width:0.00639718;stroke-dasharray:none;stroke-opacity:0.848485"
     d="m 20.137273,11.862042 9.9e-4,-0.0354 0.07554,-0.0295 c 0.326803,-0.12781 0.709707,-0.24294 1.055178,-0.31726 0.0968,-0.0208 0.277474,-0.0551 0.321058,-0.0609 l 0.02351,-0.003 0.0051,0.0156 c 0.0031,0.009 0.0062,0.0231 0.0072,0.0324 0.0021,0.0164 0.0021,0.0169 -0.01449,0.0195 -0.0092,10e-4 -0.023,0.004 -0.03056,0.005 -0.0082,0.001 -0.01687,0.003 -0.02065,0.003 -0.01063,6.5e-4 -0.08382,0.014 -0.09159,0.0168 -0.0041,0.001 -0.01196,0.003 -0.01829,0.004 -0.02934,0.003 -0.144369,0.0272 -0.145727,0.0308 -9.11e-4,0.002 -0.0031,0.003 -0.0061,10e-4 -0.0051,-0.003 -0.193791,0.0392 -0.195614,0.0441 -7.73e-4,0.002 -0.0051,0.003 -0.01032,10e-4 -0.0051,-10e-4 -0.0092,-2.6e-4 -0.0092,0.002 0,0.003 -0.0041,0.004 -0.0092,0.002 -0.0051,-0.001 -0.0092,-1.3e-4 -0.0092,0.003 0,0.003 -0.0021,0.004 -0.0041,0.003 -0.0062,-0.004 -0.0507,0.007 -0.0507,0.0124 0,0.002 -0.0021,0.003 -0.0051,10e-4 -0.0062,-0.004 -0.161987,0.0387 -0.164086,0.0444 -9.02e-4,0.002 -0.0031,0.003 -0.0051,0.002 -0.0062,-0.003 -0.05949,0.0122 -0.05949,0.0173 0,0.002 -0.002,0.003 -0.0041,0.002 -0.0051,-0.003 -0.09849,0.0247 -0.100424,0.0299 -7.7e-4,0.002 -0.0041,0.003 -0.0082,10e-4 -0.0041,-10e-4 -0.0072,-1.2e-4 -0.0072,0.003 0,0.003 -0.0021,0.004 -0.0041,0.003 -0.0051,-0.003 -0.120866,0.0339 -0.122967,0.0394 -7.73e-4,0.002 -0.0041,0.003 -0.0082,0.001 -0.0041,-0.001 -0.0072,-1.2e-4 -0.0072,0.003 0,0.003 -0.0021,0.004 -0.0041,0.003 -0.0051,-0.003 -0.08443,0.0252 -0.08668,0.0307 -9.13e-4,0.002 -0.0031,0.003 -0.0051,10e-4 -0.0041,-0.002 -0.05489,0.0154 -0.05956,0.0205 -9.9e-4,10e-4 -0.0041,0.003 -0.0072,0.003 -0.01138,6.5e-4 -0.02975,0.008 -0.02975,0.0121 0,0.002 -0.0021,0.003 -0.0041,0.002 -0.0041,-0.002 -0.02709,0.006 -0.0324,0.0112 -9.91e-4,0.001 -0.0041,0.002 -0.0072,0.002 -0.01063,1.3e-4 -0.05264,0.0172 -0.05264,0.0214 0,0.002 -0.002,0.003 -0.0041,0.002 -0.0021,-0.001 -0.02167,0.005 -0.04343,0.0136 -0.02167,0.009 -0.0406,0.0161 -0.04201,0.0161 -9.9e-4,0 -0.0021,-0.0159 -9.9e-4,-0.0354 z"
     id="path6074" />
  <path
     style="fill:#ffffff;fill-opacity:1;stroke:#ffffff;stroke-width:0.00639718;stroke-dasharray:none;stroke-opacity:0.848485"
     d="m 18.625653,12.718322 v -0.0427 l 0.08729,-0.0617 c 0.441786,-0.31229 0.868691,-0.5505 1.353954,-0.75547 0.03363,-0.0142 0.06184,-0.0258 0.06296,-0.0258 9.89e-4,0 0.002,0.0144 0.002,0.032 0,0.0266 9.91e-4,0.0324 0.0082,0.0341 0.0062,0.002 0.0062,0.002 -0.0021,0.003 -0.02081,10e-4 -0.344886,0.14569 -0.344886,0.15384 0,0.002 -0.0021,0.003 -0.0041,0.002 -0.0051,-0.003 -0.152652,0.0701 -0.155108,0.0767 -9.02e-4,0.002 -0.0031,0.003 -0.0062,10e-4 -0.0021,-10e-4 -0.0041,-2.6e-4 -0.0041,0.003 0,0.003 -0.0021,0.004 -0.0051,0.002 -0.0031,-0.002 -0.0051,-0.001 -0.0051,10e-4 0,0.002 -0.0031,0.004 -0.0062,0.004 -0.0082,0 -0.156597,0.0786 -0.165494,0.0875 -0.0041,0.004 -0.0072,0.006 -0.0072,0.004 0,-0.002 -0.0082,0.002 -0.01829,0.007 -0.01016,0.005 -0.01829,0.0118 -0.01829,0.0147 0,0.003 -9.9e-4,0.004 -0.0031,0.002 -0.0041,-0.004 -0.03823,0.0155 -0.03823,0.0215 0,0.002 -9.91e-4,0.003 -0.0031,0.002 -0.0041,-0.004 -0.02913,0.009 -0.02913,0.0146 0,0.002 -0.0031,0.004 -0.0062,0.004 -0.01411,0 -0.264235,0.15422 -0.410932,0.25331 -0.100546,0.0679 -0.25413,0.17766 -0.271895,0.19427 l -0.01165,0.0109 z"
     id="path6076" />
  <path
     style="fill:#ffffff;fill-opacity:1;stroke:#ffffff;stroke-width:0.00639718;stroke-dasharray:none;stroke-opacity:0.848485"
     d="m 20.143256,11.725612 c -0.002,-0.008 -0.002,-0.0685 -9.89e-4,-0.13357 l 9.89e-4,-0.11826 0.09927,0.0975 0.09926,0.0975 -0.0924,0.0346 c -0.0508,0.0191 -0.09496,0.0353 -0.09793,0.0361 -0.0031,7.8e-4 -0.0072,-0.005 -0.0082,-0.0139 z"
     id="path6078" />
  <path
     style="fill:#ffffff;fill-opacity:1;stroke:#ffffff;stroke-width:0.00639718;stroke-dasharray:none;stroke-opacity:0.848485"
     d="m 20.136321,11.787072 c 0,-0.0381 5.16e-4,-0.0386 0.06419,-0.0606 0.02392,-0.008 0.06685,-0.0241 0.09567,-0.0354 l 0.05234,-0.0204 0.02435,0.0243 c 0.01339,0.0133 0.02435,0.0257 0.02435,0.0275 0,0.002 -0.0139,0.008 -0.0309,0.0134 -0.01707,0.006 -0.07329,0.0265 -0.125148,0.0466 -0.05182,0.02 -0.09659,0.0365 -0.09955,0.0365 -0.0041,0 -0.0051,-0.0107 -0.0051,-0.0318 z"
     id="path6080" />
  <path
     style="fill:#ffffff;fill-opacity:1;stroke:#ffffff;stroke-width:0.00639718;stroke-dasharray:none;stroke-opacity:0.848485"
     d="m 20.379046,11.696562 c -0.0136,-0.0139 -0.02392,-0.0261 -0.02269,-0.0271 0.0041,-0.004 0.18625,-0.0656 0.290423,-0.0986 0.106411,-0.0337 0.255534,-0.0772 0.280664,-0.0819 0.0072,-0.001 0.02156,-0.005 0.03291,-0.009 0.02443,-0.008 0.228752,-0.057 0.25177,-0.0606 0.02419,-0.004 0.03751,-0.006 0.109872,-0.0217 0.07645,-0.0161 0.08586,-0.0181 0.09841,-0.0205 0.0051,-9.1e-4 0.02362,-0.005 0.04119,-0.009 0.04917,-0.0106 0.06419,-0.009 0.08382,0.006 0.0092,0.008 0.02821,0.0199 0.04211,0.0276 0.02392,0.0132 0.02446,0.014 0.01115,0.014 -0.02167,1.3e-4 -0.213487,0.0363 -0.358956,0.0676 -0.07707,0.0166 -0.219589,0.0518 -0.306969,0.0758 -0.02678,0.007 -0.05356,0.0143 -0.05965,0.0154 -0.0062,10e-4 -0.01677,0.004 -0.02372,0.007 -0.0072,0.003 -0.01257,0.004 -0.01257,0.003 0,-10e-4 -0.0072,7.8e-4 -0.01605,0.004 -0.0092,0.004 -0.01605,0.006 -0.01605,0.004 0,-10e-4 -0.0031,-2.6e-4 -0.0062,0.003 -0.0031,0.003 -0.0082,0.004 -0.0092,0.002 -0.0021,-0.002 -0.0062,-6.5e-4 -0.0092,0.002 -0.0031,0.003 -0.01111,0.006 -0.01728,0.007 -0.01625,0.003 -0.161075,0.049 -0.266002,0.0839 -0.04947,0.0164 -0.09077,0.0298 -0.09178,0.0298 -9.89e-4,0 -0.01298,-0.0114 -0.02658,-0.0253 z"
     id="path6082" />
</svg>
