<?xml version="1.0" encoding="UTF-8" standalone="no"?>
<svg
   version="1.1"
   viewBox="0 0 32 32"
   id="svg13"
   sodipodi:docname="windowzoom.svg"
   inkscape:version="1.2.2 (b0a8486541, 2022-12-01)"
   xml:space="preserve"
   xmlns:inkscape="http://www.inkscape.org/namespaces/inkscape"
   xmlns:sodipodi="http://sodipodi.sourceforge.net/DTD/sodipodi-0.dtd"
   xmlns="http://www.w3.org/2000/svg"
   xmlns:svg="http://www.w3.org/2000/svg"><sodipodi:namedview
     id="namedview13"
     pagecolor="#ffffff"
     bordercolor="#000000"
     borderopacity="0.25"
     inkscape:showpageshadow="2"
     inkscape:pageopacity="0.0"
     inkscape:pagecheckerboard="0"
     inkscape:deskcolor="#d1d1d1"
     inkscape:zoom="23.643883"
     inkscape:cx="10.679295"
     inkscape:cy="15.373955"
     inkscape:window-width="1441"
     inkscape:window-height="1080"
     inkscape:window-x="0"
     inkscape:window-y="0"
     inkscape:window-maximized="0"
     inkscape:current-layer="svg13"
     showgrid="false" /><defs
     id="defs8"><linearGradient
       id="f"
       x2="0"
       y1="543.8"
       y2="502.66"
       gradientTransform="matrix(0.66667,0,0,0.63518,-256.38,-317.28)"
       gradientUnits="userSpaceOnUse"><stop
         stop-color="#c6cdd1"
         offset="0"
         id="stop1" /><stop
         stop-color="#e0e5e7"
         offset="1"
         id="stop2" /></linearGradient><linearGradient
       id="e"
       x1="391.57"
       x2="406.57"
       y1="525.8"
       y2="540.8"
       gradientUnits="userSpaceOnUse"
       gradientTransform="translate(-384.57,-515.8)"><stop
         offset="0"
         id="stop3" /><stop
         stop-opacity="0"
         offset="1"
         id="stop4" /></linearGradient><linearGradient
       id="g"
       x1="393.41"
       x2="407.41"
       y1="526.65"
       y2="526.65"
       gradientTransform="matrix(1,0,0,0.99999,-384.41629,-515.6433)"
       gradientUnits="userSpaceOnUse"><stop
         stop-color="#2e3436"
         offset="0"
         id="stop5" /><stop
         stop-color="#555753"
         offset="1"
         id="stop6" /></linearGradient><linearGradient
       id="h"
       x1="392.57"
       x2="407.57"
       y1="521.8"
       y2="536.8"
       gradientTransform="translate(-384.57059,-511.7995)"
       gradientUnits="userSpaceOnUse"><stop
         offset="0"
         id="stop7" /><stop
         stop-opacity="0"
         offset="1"
         id="stop8" /></linearGradient><clipPath
       clipPathUnits="userSpaceOnUse"
       id="clipPath9746"><ellipse
         cx="6.2924957"
         cy="16.847548"
         id="circle9748"
         rx="3.7173967"
         ry="3.7486548"
         style="stroke-width:0.622166" /></clipPath><filter
       inkscape:collect="always"
       style="color-interpolation-filters:sRGB"
       id="filter1591"
       x="-0.0026639229"
       y="-0.0038382965"
       width="1.0053278"
       height="1.0076766"><feGaussianBlur
         inkscape:collect="always"
         stdDeviation="0.034581462"
         id="feGaussianBlur1593" /></filter></defs><rect
     x="7.3242186e-06"
     y="1.9999878"
     width="32"
     height="28"
     rx="0"
     fill="url(#f)"
     id="rect8"
     style="fill:url(#f)" /><path
     d="m 1,28 30,-20 1,1 -10e-6,21 -29,3e-5 z"
     fill="url(#e)"
     fill-rule="evenodd"
     opacity="0.2"
     id="path8"
     style="fill:url(#e)" /><rect
     x="7.3242186e-06"
     y="1.9999878"
     width="32"
     height="4"
     fill="#566069"
     id="rect9" /><rect
     x="7.3242186e-06"
     y="5.9999876"
     width="32"
     height="1"
     fill="#3daee9"
     id="rect10" /><rect
     x="1.0000073"
     y="7.9999876"
     width="30"
     height="20"
     fill="#ffffff"
     id="rect11" /><rect
     x="29.000008"
     y="2.9999878"
     width="2"
     height="2"
     rx="1"
     fill="#eff0f1"
     id="rect12" /><path
     style="color:#000000;display:inline;overflow:visible;visibility:visible;fill:#000000;fill-opacity:0.501961;fill-rule:nonzero;stroke:none;stroke-width:1.33811;stroke-linecap:square;stroke-linejoin:miter;stroke-miterlimit:4;stroke-dasharray:none;stroke-opacity:1;marker:none;enable-background:accumulate"
     d="m 16.197685,10.560759 c 0.02929,0.61954 0.118352,1.239194 0.04322,1.858734 l -3.069128,-1.253669 c 0.390659,0.426519 0.737984,0.853379 0.996724,1.280088 -3.422854,0.139465 -6.279952,2.708598 -6.75857,6.128315 -0.340993,0.06992 -0.780186,0.08806 -1.766728,-0.05821 0.214613,6.155414 5.489227,8.16223 8.811253,8.166388 3.189524,-0.07484 6.349383,-2.428196 6.991385,-5.783433 0.549484,0.224503 1.132099,0.340535 1.719882,0.342803 2.700944,0 4.890487,-2.35389 4.890503,-5.257323 0,-2.903925 -2.189544,-5.257625 -4.890503,-5.257625 -1.913827,0 -3.648839,1.203099 -4.443334,3.07079 L 16.197656,10.559776 Z M 5.097659,16.203216 c -0.01334,0 -0.02744,0 -0.04076,0.01512 -0.219262,0.0582 -0.295809,0.488504 -0.170959,0.961436 0.124834,0.473386 0.40382,0.809991 0.623118,0.752126 0.219284,-0.05631 0.29585,-0.488353 0.171012,-0.961587 C 5.56388,16.530336 5.312205,16.202538 5.097691,16.212175 Z"
     id="path4136-4-3"
     inkscape:connector-curvature="0"
     sodipodi:nodetypes="cccccccccsscccccccccc" /><path
     style="fill:#b19dfa;fill-opacity:0.387718;stroke-width:0.692979"
     d="m 0.145,24.306367 14.908548,-0.03524"
     id="path14-6" /><path
     style="color:#000000;display:inline;overflow:visible;visibility:visible;fill:#4d4d4d;fill-opacity:1;fill-rule:nonzero;stroke:none;stroke-width:1.33811;stroke-linecap:square;stroke-linejoin:miter;stroke-miterlimit:4;stroke-dasharray:none;stroke-opacity:1;marker:none;enable-background:accumulate"
     d="m 16.197685,10.20091 c 0.02929,0.619503 0.118352,1.239194 0.04322,1.858696 l -3.069128,-1.253631 c 0.390659,0.42652 0.737984,0.853379 0.996724,1.280088 -3.422854,0.139465 -6.279952,2.708599 -6.75857,6.128315 -0.340993,0.06992 -0.780186,0.08806 -1.766728,-0.0582 0.214613,6.155415 5.489227,8.16223 8.811253,8.166388 3.189524,-0.07484 6.349383,-2.428195 6.991385,-5.783433 0.549484,0.224504 1.132099,0.340535 1.719882,0.342803 2.700944,0 4.890487,-2.35389 4.890503,-5.257323 0,-2.903924 -2.189544,-5.257625 -4.890503,-5.257625 -1.913827,0 -3.648839,1.203099 -4.443334,3.07079 l -2.524735,-3.23785 z M 5.097659,15.843367 c -0.01334,0 -0.02744,0 -0.04076,0.01512 -0.219262,0.0582 -0.295809,0.488542 -0.170959,0.961436 0.124834,0.473424 0.40382,0.810029 0.623118,0.752164 C 5.728342,17.515777 5.804908,17.083734 5.68007,16.6105 5.56388,16.170487 5.312205,15.842726 5.097691,15.852364 Z"
     id="path4136-4"
     inkscape:connector-curvature="0"
     sodipodi:nodetypes="cccccccccsscccccccccc" /><ellipse
     cx="6.2728028"
     cy="16.06031"
     id="circle5091-7"
     style="opacity:0.62116;fill:#ffffff;fill-opacity:1;stroke:none;stroke-width:2.53603;stroke-dasharray:none;stroke-opacity:0.848485"
     rx="4.9576607"
     ry="5.0483112" /><rect
     style="fill:#a36060;fill-opacity:0.847059;stroke:#ffffff;stroke-width:0.322;stroke-dasharray:none;stroke-opacity:0.848485"
     id="rect10003"
     width="1.4200531"
     height="7.9393911"
     x="-1.3100438"
     y="21.646738"
     transform="rotate(-23.174478)" /><ellipse
     cx="6.2007699"
     cy="16.049788"
     id="circle5091"
     style="fill:#ffffff;fill-opacity:1;stroke:#a36060;stroke-width:0.839307;stroke-dasharray:none;stroke-opacity:0.847059"
     rx="4.3594069"
     ry="4.3960986" /><path
     style="color:#000000;display:inline;overflow:visible;visibility:visible;opacity:0.870307;fill:#4d4d4d;fill-opacity:1;fill-rule:nonzero;stroke:none;stroke-width:1.79464;stroke-linecap:square;stroke-linejoin:miter;stroke-miterlimit:4;stroke-dasharray:none;stroke-opacity:1;marker:none;filter:url(#filter1591);enable-background:accumulate"
     d="m 18.418184,6.601675 c 0.0392,0.830863 0.158727,1.661951 0.05804,2.492813 l -4.116212,-1.68132 c 0.523933,0.572019 0.989759,1.144512 1.336769,1.716799 -4.590589,0.187044 -8.4223946,3.632654 -9.0642966,8.219016 -0.457325,0.09371 -1.046351,0.11814 -2.369458,-0.07801 0.287829,8.255372 7.3619016,10.94682 11.8172596,10.952402 4.277652,-0.100288 8.515521,-3.256595 9.376546,-7.756486 0.736938,0.301095 1.518319,0.456714 2.306619,0.459755 3.622398,0 6.558905,-3.156929 6.558923,-7.050898 0,-3.894606 -2.936508,-7.051294 -6.558923,-7.051294 -2.566731,0 -4.89365,1.613543 -5.959191,4.118417 L 18.418144,6.600368 Z M 3.5313224,14.169087 c -0.0179,0 -0.0368,0 -0.05467,0.02022 -0.294064,0.07801 -0.396727,0.655218 -0.229282,1.289439 0.167421,0.63493 0.541585,1.086369 0.835696,1.008762 0.294095,-0.07553 0.396782,-0.654948 0.229355,-1.289625 -0.155825,-0.590081 -0.49336,-1.029663 -0.781056,-1.016727 z"
     id="path4136-4-36"
     inkscape:connector-curvature="0"
     sodipodi:nodetypes="cccccccccsscccccccccc"
     clip-path="url(#clipPath9746)"
     transform="matrix(1.0791601,0,0,1.0791601,-0.53561631,-2.0586754)" /></svg>
